<!-- Switch button icons by Zacksly, CC BY 3.0; paths combined. -->
<svg xmlns="http://www.w3.org/2000/svg" viewBox="0 0 512 512">
  <path d="M193.97,130.81a66.36,66.36 0 1,1 132.72,0a66.36,66.36 0 1,1 -132.72,0Z M213.97,130.81a46.36,46.36 0 1,0 92.72,0a46.36,46.36 0 1,0 -92.72,0Z M193.97,381.19a66.36,66.36 0 1,1 132.72,0a66.36,66.36 0 1,1 -132.72,0Z M213.97,381.19a46.36,46.36 0 1,0 92.72,0a46.36,46.36 0 1,0 -92.72,0Z M131.1,322.36A66.36,66.36,0,1,1,197.46,256,66.43,66.43,0,0,1,131.1,322.36Zm0-112.72A46.36,46.36,0,1,0,177.46,256,46.41,46.41,0,0,0,131.1,209.64Z M324.54,256a66.36,66.36 0 1,1 132.72,0a66.36,66.36 0 1,1 -132.72,0Z M344.54,256a46.36,46.36 0 1,0 92.72,0a46.36,46.36 0 1,0 -92.72,0Z M258.4,110.11l-20.85,34a2.56,2.56,0,0,0,2.18,3.89h41.7a2.56,2.56,0,0,0,2.18-3.89l-20.85-34A2.56,2.56,0,0,0,258.4,110.11Z M262.76,404.36l20.85-34a2.56,2.56,0,0,0-2.18-3.89h-41.7a2.56,2.56,0,0,0-2.18,3.89l20.85,34A2.56,2.56,0,0,0,262.76,404.36Z M131.1,199.64A56.36,56.36,0,1,0,187.46,256,56.36,56.36,0,0,0,131.1,199.64Zm13.53,57.6v20.85a2.55,2.55,0,0,1-3.89,2.17l-34-20.85a2.55,2.55,0,0,1,0-4.35l34-20.85a2.55,2.55,0,0,1,3.89,2.17Z M413.09,255.06l-34-20.85a2.55,2.55,0,0,0-3.89,2.17v41.71a2.55,2.55,0,0,0,3.89,2.17l34-20.85A2.55,2.55,0,0,0,413.09,255.06Z"/>
</svg>
